<svg width="706" height="460" viewBox="0 0 706 460" fill="none" xmlns="http://www.w3.org/2000/svg">
<path opacity="0.5" d="M632.674 129.479H467.014C463.968 129.479 461.499 131.948 461.499 134.994V357.001C461.499 360.047 463.968 362.517 467.014 362.517H632.674C635.72 362.517 638.189 360.047 638.189 357.001V134.994C638.189 131.948 635.72 129.479 632.674 129.479Z" fill="#006766"/>
<path d="M509.117 143.301H481.71C480.307 143.301 479.169 144.438 479.169 145.841V173.248C479.169 174.651 480.307 175.789 481.71 175.789H509.117C510.52 175.789 511.657 174.651 511.657 173.248V145.841C511.657 144.438 510.52 143.301 509.117 143.301Z" fill="white"/>
<path d="M476.012 154.227C482.353 159.388 487.612 164.851 491.268 170.758C494.677 163.175 508.317 145.656 515.252 141.432L509.501 135.359C509.501 135.359 497.104 148.621 490.957 161.719C486.589 157.783 480.983 154.927 476.012 154.227Z" fill="black"/>
<path d="M615.374 151.639H530.705C529.553 151.639 528.62 150.706 528.62 149.554C528.62 148.403 529.553 147.47 530.705 147.47H615.374C616.525 147.47 617.458 148.403 617.458 149.554C617.458 150.706 616.525 151.639 615.374 151.639Z" fill="white"/>
<path d="M615.374 157.778C616.219 157.778 616.907 158.467 616.907 159.312C616.907 160.157 616.219 160.846 615.374 160.846H530.705C529.86 160.846 529.171 160.157 529.171 159.312C529.171 158.467 529.86 157.778 530.705 157.778H615.374ZM615.374 157.227H530.705C529.553 157.227 528.62 158.16 528.62 159.312C528.62 160.463 529.553 161.396 530.705 161.396H615.374C616.525 161.396 617.458 160.463 617.458 159.312C617.458 158.16 616.525 157.227 615.374 157.227Z" fill="white"/>
<path d="M541.346 167.536C542.191 167.536 542.879 168.224 542.879 169.07C542.879 169.915 542.191 170.603 541.346 170.603H530.705C529.86 170.603 529.171 169.915 529.171 169.07C529.171 168.224 529.86 167.536 530.705 167.536H541.346ZM541.346 166.985H530.705C529.553 166.985 528.62 167.918 528.62 169.07C528.62 170.221 529.553 171.154 530.705 171.154H541.346C542.497 171.154 543.43 170.221 543.43 169.07C543.43 167.918 542.497 166.985 541.346 166.985Z" fill="white"/>
<path d="M565.928 167.536C566.773 167.536 567.461 168.224 567.461 169.07C567.461 169.915 566.773 170.603 565.928 170.603H548.929C548.084 170.603 547.395 169.915 547.395 169.07C547.395 168.224 548.084 167.536 548.929 167.536H565.928ZM565.928 166.985H548.929C547.777 166.985 546.844 167.918 546.844 169.07C546.844 170.221 547.777 171.154 548.929 171.154H565.928C567.079 171.154 568.012 170.221 568.012 169.07C568.012 167.918 567.079 166.985 565.928 166.985Z" fill="white"/>
<path d="M598.164 167.536C599.009 167.536 599.697 168.224 599.697 169.07C599.697 169.915 599.009 170.603 598.164 170.603H573.152C572.307 170.603 571.618 169.915 571.618 169.07C571.618 168.224 572.307 167.536 573.152 167.536H598.164ZM598.164 166.985H573.152C572.001 166.985 571.068 167.918 571.068 169.07C571.068 170.221 572.001 171.154 573.152 171.154H598.164C599.315 171.154 600.248 170.221 600.248 169.07C600.248 167.918 599.315 166.985 598.164 166.985Z" fill="white"/>
<path d="M509.119 200.677C510.216 200.677 511.109 201.569 511.109 202.664V230.073C511.109 231.17 510.216 232.06 509.119 232.06H481.71C480.613 232.06 479.72 231.168 479.72 230.073V202.664C479.72 201.567 480.613 200.677 481.71 200.677H509.119ZM509.119 200.126H481.71C480.307 200.126 479.169 201.263 479.169 202.666V230.076C479.169 231.479 480.307 232.616 481.71 232.616H509.119C510.522 232.616 511.659 231.479 511.659 230.076V202.666C511.659 201.263 510.522 200.126 509.119 200.126Z" fill="white"/>
<path d="M476.012 211.051C482.353 216.213 487.612 221.676 491.268 227.583C494.677 220 508.317 202.481 515.252 198.257L509.501 192.184C509.501 192.184 497.104 205.446 490.957 218.544C486.589 214.608 480.983 211.752 476.012 211.051Z" fill="black"/>
<path d="M615.374 208.464H530.705C529.553 208.464 528.62 207.531 528.62 206.379C528.62 205.228 529.553 204.295 530.705 204.295H615.374C616.525 204.295 617.458 205.228 617.458 206.379C617.458 207.531 616.525 208.464 615.374 208.464Z" fill="white"/>
<path d="M615.374 214.603C616.219 214.603 616.907 215.292 616.907 216.137C616.907 216.982 616.219 217.67 615.374 217.67H530.705C529.86 217.67 529.171 216.982 529.171 216.137C529.171 215.292 529.86 214.603 530.705 214.603H615.374ZM615.374 214.052H530.705C529.553 214.052 528.62 214.985 528.62 216.137C528.62 217.288 529.553 218.221 530.705 218.221H615.374C616.525 218.221 617.458 217.288 617.458 216.137C617.458 214.985 616.525 214.052 615.374 214.052Z" fill="white"/>
<path d="M542.925 227.979H530.705C529.553 227.979 528.62 227.046 528.62 225.894C528.62 224.743 529.553 223.81 530.705 223.81H542.925C544.076 223.81 545.009 224.743 545.009 225.894C545.009 227.046 544.076 227.979 542.925 227.979Z" fill="white"/>
<path d="M582.746 224.361C583.591 224.361 584.28 225.049 584.28 225.894C584.28 226.74 583.591 227.428 582.746 227.428H550.541C549.696 227.428 549.007 226.74 549.007 225.894C549.007 225.049 549.696 224.361 550.541 224.361H582.746ZM582.746 223.81H550.541C549.389 223.81 548.456 224.743 548.456 225.894C548.456 227.046 549.389 227.979 550.541 227.979H582.746C583.897 227.979 584.83 227.046 584.83 225.894C584.83 224.743 583.897 223.81 582.746 223.81Z" fill="white"/>
<path d="M509.119 257.501C510.216 257.501 511.109 258.394 511.109 259.489V286.898C511.109 287.995 510.216 288.885 509.119 288.885H481.71C480.613 288.885 479.72 287.993 479.72 286.898V259.489C479.72 258.392 480.613 257.501 481.71 257.501H509.119ZM509.119 256.951H481.71C480.307 256.951 479.17 258.088 479.17 259.491V286.9C479.17 288.304 480.307 289.441 481.71 289.441H509.119C510.522 289.441 511.66 288.304 511.66 286.9V259.491C511.66 258.088 510.522 256.951 509.119 256.951Z" fill="white"/>
<path d="M557.226 265.289H530.705C529.553 265.289 528.62 264.355 528.62 263.204C528.62 262.053 529.553 261.12 530.705 261.12H557.226C558.378 261.12 559.311 262.053 559.311 263.204C559.311 264.355 558.378 265.289 557.226 265.289Z" fill="white"/>
<path d="M605.459 261.67C606.304 261.67 606.993 262.359 606.993 263.204C606.993 264.049 606.304 264.738 605.459 264.738H566.929C566.084 264.738 565.396 264.049 565.396 263.204C565.396 262.359 566.084 261.67 566.929 261.67H605.459ZM605.459 261.12H566.929C565.778 261.12 564.845 262.053 564.845 263.204C564.845 264.355 565.778 265.289 566.929 265.289H605.459C606.611 265.289 607.544 264.355 607.544 263.204C607.544 262.053 606.611 261.12 605.459 261.12Z" fill="white"/>
<path d="M615.374 271.428C616.219 271.428 616.907 272.117 616.907 272.962C616.907 273.807 616.219 274.495 615.374 274.495H530.705C529.86 274.495 529.171 273.807 529.171 272.962C529.171 272.117 529.86 271.428 530.705 271.428H615.374ZM615.374 270.877H530.705C529.553 270.877 528.62 271.81 528.62 272.962C528.62 274.113 529.553 275.046 530.705 275.046H615.374C616.525 275.046 617.458 274.113 617.458 272.962C617.458 271.81 616.525 270.877 615.374 270.877Z" fill="white"/>
<path d="M587.917 284.802H530.705C529.553 284.802 528.62 283.869 528.62 282.717C528.62 281.566 529.553 280.633 530.705 280.633H587.917C589.068 280.633 590.001 281.566 590.001 282.717C590.001 283.869 589.068 284.802 587.917 284.802Z" fill="white"/>
<path d="M509.117 313.776H481.71C480.307 313.776 479.17 314.913 479.17 316.316V343.723C479.17 345.126 480.307 346.263 481.71 346.263H509.117C510.52 346.263 511.657 345.126 511.657 343.723V316.316C511.657 314.913 510.52 313.776 509.117 313.776Z" fill="white"/>
<path d="M615.374 318.495C616.219 318.495 616.907 319.184 616.907 320.029C616.907 320.874 616.219 321.563 615.374 321.563H530.705C529.86 321.563 529.171 320.874 529.171 320.029C529.171 319.184 529.86 318.495 530.705 318.495H615.374ZM615.374 317.945H530.705C529.553 317.945 528.62 318.878 528.62 320.029C528.62 321.181 529.553 322.114 530.705 322.114H615.374C616.525 322.114 617.458 321.181 617.458 320.029C617.458 318.878 616.525 317.945 615.374 317.945Z" fill="white"/>
<path d="M615.374 328.253C616.219 328.253 616.907 328.942 616.907 329.787C616.907 330.632 616.219 331.32 615.374 331.32H530.705C529.86 331.32 529.171 330.632 529.171 329.787C529.171 328.942 529.86 328.253 530.705 328.253H615.374ZM615.374 327.702H530.705C529.553 327.702 528.62 328.635 528.62 329.787C528.62 330.938 529.553 331.871 530.705 331.871H615.374C616.525 331.871 617.458 330.938 617.458 329.787C617.458 328.635 616.525 327.702 615.374 327.702Z" fill="white"/>
<path d="M587.917 341.627H530.705C529.553 341.627 528.62 340.694 528.62 339.542C528.62 338.391 529.553 337.458 530.705 337.458H587.917C589.068 337.458 590.001 338.391 590.001 339.542C590.001 340.694 589.068 341.627 587.917 341.627Z" fill="white"/>
<path d="M300.879 317.023C300.879 317.023 313.723 354.758 320.19 380.201C326.66 405.645 338.393 450.936 338.393 450.936H268.154V367.262L300.877 317.021L300.879 317.023Z" fill="#060305"/>
<path d="M410.522 156.743V156.76C410.45 159.905 408.499 161.09 405.975 159.962C404.999 159.521 404.653 158.861 404.615 158.783L404.61 158.771C402.561 161.978 399.387 158.312 399.387 158.312C398.753 159.993 397.276 161.15 395.925 161.387L391.55 170.86C386.937 185.126 369.922 236.6 359.485 253.252C355.931 258.921 311.857 252.696 311.857 252.696L326.052 217.143L339.404 218.77L372.433 161.56L375.838 152.992C375.838 152.992 382.274 134.68 383.183 130.328C384.093 125.981 392.205 116.172 398.371 107.261C401.97 102.064 406.006 106.582 402.991 114.232C401.26 118.629 397.025 129.217 397.025 129.217C397.025 129.217 409.064 138.621 410.26 140.81C411.125 142.391 410.911 151.159 410.519 156.745L410.522 156.743Z" fill="url(#paint0_linear_74_641)"/>
<path d="M379.328 147.705C379.328 147.705 381.377 140.696 385.904 137.57C390.432 134.443 393.936 133.743 396.146 132.287C398.357 130.832 400.728 132.394 399.757 135.63C398.827 138.735 393.288 144.255 393.288 144.255C393.288 144.255 395.731 150.563 390.054 155.521" stroke="black" stroke-width="2.32" stroke-linecap="round" stroke-linejoin="round"/>
<path d="M404.61 157.947L405.256 145.333" stroke="black" stroke-width="2.32" stroke-linecap="round" stroke-linejoin="round"/>
<path d="M393.444 150.295C393.444 150.295 393.043 154.132 394.582 155.881C395.847 157.318 399.218 157.735 399.373 155.095L399.98 143.633" stroke="black" stroke-width="2.32" stroke-linecap="round" stroke-linejoin="round"/>
<path d="M206.343 164.146C206.343 164.146 212.056 173.668 212.865 180.983C213.675 188.298 191.735 208.998 209.606 223.444C227.476 237.891 294.657 232.452 296.938 212.001C299.217 191.55 278.116 180.325 277.803 165.44C277.176 135.575 269.666 139.564 265.711 133.526C261.758 127.489 244.076 130.939 243.43 132.016C242.784 133.094 206.343 164.143 206.343 164.143V164.146Z" fill="black"/>
<path d="M293.595 450.939H268.159V367.262L269.448 365.285C278.458 371.457 295.01 359.406 295.01 359.406C294.369 369.743 292.753 377.504 288.925 386.455L293.595 450.939Z" fill="black"/>
<path d="M227.096 324.103C227.096 324.103 222.929 338.488 213.758 354.119C204.587 369.751 197.084 381.006 199.584 397.889C202.084 414.771 213.096 450.83 213.096 450.83H280.661L284.612 385.809C284.612 385.809 301.596 355.382 300.877 317.023C300.877 317.023 281.907 305.965 227.093 324.103H227.096Z" fill="#060305"/>
<path d="M241.4 347.771C241.4 347.771 262.404 349.262 266.948 324.583H271.122C271.122 324.583 270.182 338.443 261.269 347.643C252.357 356.842 238.413 355.19 238.413 355.19L241.398 347.771H241.4Z" fill="black"/>
<path d="M247.039 321.337C247.039 321.337 244.667 341.175 238.413 355.19C232.16 369.204 225.69 377.83 223.319 388.397C220.947 398.962 229.572 450.83 229.572 450.83" stroke="black" stroke-width="2.32" stroke-linecap="round" stroke-linejoin="round"/>
<path d="M175.615 239.484L146.382 262.254L78.6957 250.688L73.5367 266.319C73.5367 266.319 138.878 295.395 149.663 295.552C160.449 295.708 197.184 267.518 197.184 267.518L175.613 239.484H175.615Z" fill="url(#paint1_linear_74_641)"/>
<path d="M321.271 264.913C336.382 239.069 328.809 216.298 328.809 216.298L277.8 209.42L241.891 205.353C241.891 205.353 224.698 203.172 215.949 205.353C207.193 207.542 171.446 240.74 171.446 240.74C171.446 240.74 186.866 275.336 206.674 280.751L219.594 272.212C219.594 272.212 227.934 310.77 227.096 324.103C227.096 324.103 242.136 328.165 272.036 325.865C297.439 323.911 300.879 317.023 300.879 317.023C300.879 317.023 300.67 288.467 300.16 278.664C301.162 276.656 303.757 269.79 305.779 263.489L321.268 264.913H321.271Z" fill="#006766"/>
<path d="M254.714 131.625C232.101 122.245 205.835 145.366 214.591 166.85C219.553 179.02 228.482 186.204 238.031 189.777L234.89 204.698C234.89 204.698 239.966 216.04 252.993 217.497C264.351 218.77 268.157 211.087 268.157 211.087L261.499 191.937C266.547 190.992 270.761 189.124 273.368 186.648C283.835 176.705 266.2 136.387 254.714 131.622V131.625Z" fill="url(#paint2_linear_74_641)"/>
<path d="M251.523 136.114C251.523 136.114 254.308 145.041 249.467 154.82C241.165 171.584 214.105 175.933 214.105 175.933C214.105 175.933 198.006 161.845 207.205 140.283C216.405 118.721 246.106 112.684 251.523 125.908C251.523 125.908 263.536 118.94 265.711 133.526C265.711 133.526 260.787 141.503 251.523 136.114Z" fill="black"/>
<path d="M234.372 160.373C227.761 172.664 239.883 180.983 238.031 189.777C238.031 189.777 233.959 191.747 233.375 191.747C232.791 191.747 221.578 185.997 221.578 185.997L217.841 180.812L216.547 169.321L219.71 161.052" fill="black"/>
<path d="M228.335 170.183C228.335 170.183 224.185 165.546 220.415 169.105C217.343 172.004 219.869 179.371 226.628 181.296C228.943 181.956 230.868 180.712 229.897 178.376C229.078 176.403 228.451 172.949 228.335 170.183Z" fill="url(#paint3_linear_74_641)"/>
<path d="M232.214 263.332L222.675 287.693C221.044 278.909 219.596 272.209 219.596 272.209L232.214 263.332Z" fill="black"/>
<path d="M311.145 263.98L305.784 263.489C307.111 259.339 308.199 255.434 308.412 253.323C309.018 247.428 305.663 241.652 301.905 236.55C302.356 236.975 309.63 243.857 311.857 250.683C312.966 254.083 312.216 259.401 311.147 263.98H311.145Z" fill="black"/>
<path style="mix-blend-mode:multiply" d="M261.499 191.937C261.499 191.937 250.904 192.752 243.501 187.431C243.501 187.431 249.968 199.791 264.092 199.397L261.499 191.937Z" fill="url(#paint4_linear_74_641)"/>
<path d="M76.9507 287.693H22.5664C20.4107 287.693 18.5185 286.262 17.9297 284.189L0.109421 221.369C-0.403393 219.56 0.954613 217.761 2.8373 217.761H57.2216C59.3773 217.761 61.2695 219.192 61.8583 221.265L79.6786 284.085C80.1914 285.894 78.8334 287.693 76.9507 287.693Z" fill="white"/>
<path d="M79.7071 287.693H25.3227C23.167 287.693 21.2748 286.262 20.6861 284.189L2.8658 221.369C2.35299 219.56 3.71099 217.761 5.59368 217.761H59.978C62.1337 217.761 64.0259 219.192 64.6147 221.265L82.4349 284.085C82.9478 285.894 81.5898 287.693 79.7071 287.693Z" fill="black"/>
<path d="M61.9343 246.654H21.0446C19.0646 246.654 17.0204 245.049 16.4767 243.069C15.9331 241.089 17.0988 239.484 19.0764 239.484H59.9662C61.9462 239.484 63.9903 241.089 64.534 243.069C65.0777 245.049 63.912 246.654 61.9343 246.654Z" fill="white"/>
<path d="M66.2244 261.639H25.3322C23.3522 261.639 21.3081 260.035 20.7644 258.055C20.2207 256.075 21.3864 254.47 23.3641 254.47H64.2538C66.2339 254.47 68.278 256.075 68.8217 258.055C69.3653 260.035 68.1996 261.639 66.222 261.639H66.2244Z" fill="white"/>
<path d="M84.2986 251.645C84.2986 251.645 78.615 241.649 76.6753 240.033C74.7356 238.416 61.4428 232.39 60.6333 232.283C58.8455 232.046 58.2615 237.276 60.3104 240.531C62.3593 243.786 72.4897 249.026 72.4897 249.026L75.614 260.037L84.2986 251.645Z" fill="url(#paint5_linear_74_641)"/>
<path d="M484.224 317.681C484.224 317.681 515.755 320.229 529.506 326.449C546.65 334.205 576.029 391.707 586.215 425.564C590.376 439.398 583.556 450.937 583.556 450.937H349.243C349.243 450.937 388.63 338.236 396.68 330.186C404.731 322.135 445.789 317.679 445.789 317.679H484.224V317.681Z" fill="#006766"/>
<path d="M426.58 239.05C426.58 239.05 415.08 250.405 426.58 260.757L436.354 246.813L426.58 239.05Z" fill="black"/>
<path d="M422.304 281.245C424.436 260.849 422.197 237.92 443.733 233.359C464.253 229.014 486.002 244.14 483.006 266.497C483.006 266.497 489.936 265.571 491.446 272.364C492.902 278.916 483.984 290.364 474.668 288.489C474.644 288.524 474.618 288.56 474.595 288.598L484.222 317.681C484.222 317.681 469.388 327.738 445.906 323.569L446.991 306.276C432.461 307.681 420.502 298.477 422.304 281.243V281.245Z" fill="url(#paint6_linear_74_641)"/>
<path d="M485.207 266.554C485.207 266.554 491.268 263.489 491.985 255.439C492.705 247.388 484.222 244.226 484.222 244.226C484.222 244.226 484.941 234.019 477.178 229.708C469.414 225.396 460.25 219.789 448.284 215.045C436.316 210.302 418.563 220.56 425.061 241.927C430.666 260.363 466.325 253.715 466.325 253.715C466.325 253.715 464.493 257.058 464.438 261.908C464.369 268.003 468.211 270.588 468.211 270.588L466.378 276.357L469.937 278.083C469.937 278.083 476.997 265.576 485.205 266.557L485.207 266.554Z" fill="black"/>
<path d="M410.904 444.111C410.904 444.111 434.327 420.662 437.067 419.961C443.572 417.57 484.941 429.558 484.941 429.558C481.603 435.339 480.506 442.632 480.91 450.939H468.69C450.048 450.077 448.546 439.743 448.546 439.743L443.724 444.111H410.901H410.904Z" fill="url(#paint7_linear_74_641)"/>
<path d="M534.824 423.826L514.843 364.76L528.644 422.979L534.824 423.826Z" fill="black"/>
<path d="M544.024 425.351C544.024 425.351 498.827 418.423 490.262 423.914C479.049 431.101 480.91 450.939 480.91 450.939" stroke="black" stroke-width="4.64" stroke-miterlimit="10" stroke-linecap="round"/>
<path style="mix-blend-mode:multiply" d="M446.991 306.278C446.991 306.278 462.23 303.415 467.619 290.153C467.619 290.153 467.135 308.804 446.497 314.146L446.991 306.278Z" fill="url(#paint8_linear_74_641)"/>
<path d="M419.769 450.939H491.603C491.603 447.169 488.545 444.111 484.775 444.111H419.769V450.939Z" fill="black"/>
<path d="M329.701 450.939H449.583C451.912 450.939 453.619 448.745 453.045 446.488L431.775 362.84C431.127 360.292 428.833 358.509 426.205 358.509H306.323C303.994 358.509 302.287 360.703 302.862 362.961L324.131 446.609C324.78 449.156 327.073 450.939 329.701 450.939Z" fill="black"/>
<path d="M324.188 450.939H444.07C446.399 450.939 448.106 448.745 447.532 446.487L426.262 362.839C425.614 360.292 423.32 358.509 420.692 358.509H300.81C298.481 358.509 296.774 360.703 297.349 362.961L318.619 446.608C319.267 449.156 321.56 450.939 324.188 450.939Z" fill="#80B3B3"/>
<path d="M369.442 411.775C375.872 411.775 381.085 408.819 381.085 405.173C381.085 401.526 375.872 398.57 369.442 398.57C363.012 398.57 357.799 401.526 357.799 405.173C357.799 408.819 363.012 411.775 369.442 411.775Z" fill="#060305"/>
<path d="M348.919 98.9251C365.439 82.405 365.439 55.6206 348.919 39.1005C332.399 22.5805 305.615 22.5804 289.095 39.1005C272.575 55.6206 272.575 82.405 289.095 98.9251C305.615 115.445 332.399 115.445 348.919 98.9251Z" stroke="#006766" stroke-width="2.98" stroke-miterlimit="10"/>
<path d="M346.383 96.3885C361.502 81.2693 361.502 56.7563 346.383 41.6372C331.264 26.518 306.751 26.518 291.631 41.6371C276.512 56.7563 276.512 81.2693 291.631 96.3885C306.751 111.508 331.264 111.508 346.383 96.3885Z" fill="#006766"/>
<path d="M341.222 91.2279C353.491 78.9589 353.491 59.0668 341.222 46.7977C328.953 34.5286 309.061 34.5286 296.792 46.7977C284.523 59.0668 284.523 78.9589 296.792 91.2279C309.061 103.497 328.953 103.497 341.222 91.2279Z" fill="white"/>
<path d="M323.145 69.522C323.427 67.2343 321.801 65.151 319.514 64.8689C317.226 64.5867 315.143 66.2126 314.86 68.5004C314.578 70.7881 316.204 72.8715 318.492 73.1536C320.78 73.4357 322.863 71.8098 323.145 69.522Z" fill="#006766"/>
<path d="M320.661 69.0116C320.661 69.9233 319.922 70.6641 319.008 70.6641C318.094 70.6641 317.356 69.9233 317.356 69.0116C317.356 68.1 318.094 67.3593 319.008 67.3593C319.922 67.3593 320.661 68.0976 320.661 69.0116Z" fill="black"/>
<path d="M319.929 32.7467H318.089C317.705 32.7467 317.394 33.0581 317.394 33.4423V41.747C317.394 42.1312 317.705 42.4427 318.089 42.4427H319.929C320.313 42.4427 320.625 42.1312 320.625 41.747V33.4423C320.625 33.0581 320.313 32.7467 319.929 32.7467Z" fill="white"/>
<path d="M345.579 69.0116C345.579 68.1189 346.304 67.3948 347.196 67.3948H353.659C354.551 67.3948 355.275 68.1189 355.275 69.0116C355.275 69.9043 354.551 70.6284 353.659 70.6284H347.196C346.304 70.6284 345.579 69.9043 345.579 69.0116Z" fill="white"/>
<path d="M318.089 105.277H319.929C320.313 105.277 320.625 104.965 320.625 104.581V96.2762C320.625 95.892 320.313 95.5806 319.929 95.5806H318.089C317.705 95.5806 317.394 95.892 317.394 96.2762V104.581C317.394 104.965 317.705 105.277 318.089 105.277Z" fill="white"/>
<path d="M292.439 69.0116C292.439 69.9043 291.715 70.6284 290.822 70.6284H284.36C283.467 70.6284 282.743 69.9043 282.743 69.0116C282.743 68.1189 283.467 67.3948 284.36 67.3948H290.822C291.715 67.3948 292.439 68.1189 292.439 69.0116Z" fill="white"/>
<path d="M319.008 69.0117L303.503 45.598" stroke="black" stroke-width="3.97" stroke-linecap="round" stroke-linejoin="round"/>
<path d="M309.376 83.0832L319.008 69.0117" stroke="black" stroke-width="7.94" stroke-linecap="round" stroke-linejoin="round"/>
<path d="M114.574 142.363H180.886C186.949 142.363 191.864 137.448 191.864 131.385C190.729 121.888 196.923 97.3019 180.886 97.487H114.574C98.5744 97.2734 104.7 121.924 103.596 131.387C103.596 137.448 108.51 142.363 114.574 142.363Z" fill="white"/>
<path d="M180.886 142.691H114.574C108.339 142.691 103.268 137.619 103.268 131.387V131.349C103.529 129.132 103.382 125.979 103.225 122.641C102.853 114.659 102.387 104.723 106.984 99.9703C108.828 98.0615 111.383 97.1166 114.578 97.1593H180.696C180.755 97.1593 180.819 97.1593 180.883 97.1665V97.1593C184.088 97.119 186.652 98.0734 188.497 99.9869C193.07 104.726 192.604 114.607 192.229 122.548C192.07 125.92 191.921 129.103 192.189 131.347V131.385C192.189 137.619 187.12 142.691 180.886 142.691ZM103.923 131.404C103.935 137.266 108.707 142.033 114.574 142.033H180.886C186.752 142.033 191.524 137.266 191.534 131.404C191.263 129.108 191.413 125.905 191.574 122.515C191.942 114.702 192.4 104.977 188.025 100.44C186.284 98.6361 183.953 97.779 180.89 97.8122C180.7 97.8122 115.236 97.8122 114.574 97.8122C111.525 97.7719 109.194 98.6266 107.456 100.424C103.057 104.973 103.515 114.749 103.881 122.608C104.037 125.965 104.187 129.134 103.923 131.404Z" fill="#006766"/>
<path d="M173.26 138.685C173.26 138.685 171.593 164.941 190.836 164.941C190.836 164.941 157.693 174.051 157.693 138.685" fill="white"/>
<path d="M181.973 166.301C177.135 166.301 171.185 165.361 166.373 161.691C160.397 157.137 157.367 149.395 157.367 138.685C157.367 138.505 157.515 138.358 157.695 138.358C157.876 138.358 158.023 138.505 158.023 138.685C158.023 149.182 160.964 156.746 166.769 161.171C173.991 166.677 183.877 165.867 188.364 165.117C184.703 164.649 181.631 163.111 179.205 160.525C172.113 152.971 172.925 138.807 172.935 138.664C172.947 138.484 173.103 138.348 173.284 138.358C173.464 138.37 173.602 138.524 173.59 138.707C173.58 138.847 172.788 152.733 179.684 160.079C182.51 163.089 186.263 164.613 190.838 164.613C191.002 164.613 191.142 164.734 191.163 164.898C191.185 165.062 191.083 165.214 190.926 165.259C190.852 165.281 187.018 166.304 181.973 166.304V166.301Z" fill="#006766"/>
<path d="M166.968 131.145C166.954 131.145 166.94 131.145 166.923 131.145C163.272 131.126 160.359 127.446 157.543 123.887C155.212 120.941 152.8 117.893 150.739 118.057C149.179 118.18 148.894 118.987 148.472 121.266C148.051 123.534 147.415 126.962 142.634 126.784C138.384 126.627 134.937 122.534 131.601 118.579C129.16 115.682 126.637 112.689 124.695 112.651C123.263 112.625 122.323 114.139 120.948 116.642C119.41 119.438 117.375 123.14 113.071 123.142C112.456 123.142 111.796 123.066 111.084 122.902C110.379 122.738 109.937 122.036 110.101 121.33C110.265 120.625 110.967 120.184 111.673 120.348C115.186 121.157 116.653 119.011 118.648 115.381C120.041 112.843 121.625 109.973 124.744 110.03C127.874 110.091 130.656 113.394 133.605 116.888C136.435 120.246 139.64 124.049 142.729 124.163C145.15 124.251 145.433 123.256 145.889 120.789C146.261 118.776 146.826 115.732 150.53 115.443C153.984 115.172 156.712 118.614 159.597 122.261C162.028 125.336 164.544 128.512 166.933 128.524C168.004 128.529 168.759 128.28 169.248 127.757C170.511 126.414 170.288 123.085 170.09 120.146C169.806 115.908 169.452 110.635 174.1 110.058C180.463 109.272 186.831 117.788 187.099 118.149C187.529 118.731 187.405 119.552 186.823 119.982C186.242 120.412 185.42 120.288 184.991 119.707C183.414 117.577 178.443 112.162 174.423 112.66C172.541 112.893 172.377 115.006 172.709 119.968C172.954 123.61 173.205 127.375 171.161 129.55C170.166 130.606 168.756 131.143 166.966 131.143L166.968 131.145Z" fill="#006766"/>
<path d="M466.041 81.8605C470.288 65.4756 460.448 48.7505 444.063 44.5039C427.678 40.2573 410.953 50.0974 406.706 66.4823C402.46 82.8672 412.3 99.5923 428.685 103.839C445.07 108.085 461.795 98.2454 466.041 81.8605Z" fill="#006766"/>
<path d="M445.364 67.6015C445.364 73.2638 441.331 77.8554 436.354 77.8554C431.378 77.8554 427.344 73.2662 427.344 67.6015C427.344 61.9368 431.378 57.3476 436.354 57.3476C441.331 57.3476 445.364 61.9392 445.364 67.6015Z" fill="white"/>
<path d="M456.435 92.7554C451.442 98.1542 444.286 101.535 436.354 101.535C428.422 101.535 421.267 98.1542 416.274 92.7554C417.257 91.49 418.363 90.3338 419.569 89.2868C423.221 86.1387 427.807 84.0471 432.812 83.4464C435.16 83.1639 437.546 83.1639 439.894 83.4464C446.558 84.2465 452.463 87.6772 456.432 92.7554H456.435Z" fill="white"/>
<path d="M700.728 275.362C703.576 263.293 696.102 251.201 684.034 248.353C671.965 245.504 659.873 252.978 657.024 265.047C654.176 277.115 661.65 289.208 673.719 292.056C685.787 294.905 697.88 287.43 700.728 275.362Z" fill="#006766"/>
<path d="M685.501 265.414C685.501 269.562 682.545 272.926 678.901 272.926C675.256 272.926 672.301 269.564 672.301 265.414C672.301 261.264 675.256 257.903 678.901 257.903C682.545 257.903 685.501 261.264 685.501 265.414Z" fill="white"/>
<path d="M693.611 283.842C689.952 287.798 684.71 290.274 678.901 290.274C673.091 290.274 667.847 287.798 664.191 283.842C664.912 282.914 665.722 282.069 666.605 281.302C669.281 278.997 672.64 277.465 676.308 277.024C678.029 276.817 679.777 276.817 681.498 277.024C686.382 277.61 690.705 280.122 693.613 283.842H693.611Z" fill="white"/>
<path opacity="0.5" d="M383.098 324.193C367.49 309.685 371.524 281.49 371.524 281.49H330.753C330.753 281.49 326.719 309.685 342.327 324.193H383.098Z" fill="#006766"/>
<path d="M347.265 273.927L342.628 278.221L353.664 290.14L358.302 285.846L347.265 273.927Z" fill="black"/>
<path d="M365.957 295.894H336.308C335.653 295.894 335.121 295.362 335.121 294.706C335.121 294.051 335.653 293.519 336.308 293.519H365.957C366.612 293.519 367.144 294.051 367.144 294.706C367.144 295.362 366.612 295.894 365.957 295.894Z" fill="white"/>
<path d="M366.818 302.843H337.17C336.515 302.843 335.983 302.311 335.983 301.656C335.983 301 336.515 300.469 337.17 300.469H366.818C367.474 300.469 368.005 301 368.005 301.656C368.005 302.311 367.474 302.843 366.818 302.843Z" fill="white"/>
<path d="M368.148 309.792H338.5C337.844 309.792 337.313 309.26 337.313 308.605C337.313 307.949 337.844 307.418 338.5 307.418H368.148C368.803 307.418 369.335 307.949 369.335 308.605C369.335 309.26 368.803 309.792 368.148 309.792Z" fill="white"/>
<path d="M354.744 316.741H341.866C341.211 316.741 340.679 316.209 340.679 315.554C340.679 314.899 341.211 314.367 341.866 314.367H354.744C355.399 314.367 355.931 314.899 355.931 315.554C355.931 316.209 355.399 316.741 354.744 316.741Z" fill="white"/>
<path opacity="0.5" d="M195.814 64.8569C211.422 50.3486 207.388 22.1533 207.388 22.1533H248.159C248.159 22.1533 252.193 50.3486 236.585 64.8569H195.814Z" fill="#006766"/>
<path d="M220.615 26.5224L225.252 30.8164L236.289 18.8978L231.652 14.6038L220.615 26.5224Z" fill="black"/>
<path d="M212.955 36.5572H242.604C243.259 36.5572 243.791 36.0254 243.791 35.3702C243.791 34.7149 243.259 34.1831 242.604 34.1831H212.955C212.3 34.1831 211.768 34.7149 211.768 35.3702C211.768 36.0254 212.3 36.5572 212.955 36.5572Z" fill="white"/>
<path d="M212.094 43.5063H241.742C242.397 43.5063 242.929 42.9745 242.929 42.3193C242.929 41.664 242.397 41.1322 241.742 41.1322H212.094C211.438 41.1322 210.906 41.664 210.906 42.3193C210.906 42.9745 211.438 43.5063 212.094 43.5063Z" fill="white"/>
<path d="M210.764 50.4554H240.412C241.067 50.4554 241.599 49.9236 241.599 49.2684C241.599 48.6131 241.067 48.0813 240.412 48.0813H210.764C210.109 48.0813 209.577 48.6131 209.577 49.2684C209.577 49.9236 210.109 50.4554 210.764 50.4554Z" fill="white"/>
<path d="M224.168 57.4045H237.046C237.701 57.4045 238.233 56.8727 238.233 56.2175C238.233 55.5622 237.701 55.0304 237.046 55.0304H224.168C223.513 55.0304 222.981 55.5622 222.981 56.2175C222.981 56.8727 223.513 57.4045 224.168 57.4045Z" fill="white"/>
<path d="M563.798 437.382C563.798 442.254 566.996 445.528 571.759 445.528H573.693C573.769 448.529 576.217 450.939 579.237 450.939H595.248C598.313 450.939 600.799 448.453 600.799 445.388V423.826H573.686V428.209H570.79C568.088 428.209 565.693 429.773 564.686 432.195C564.097 433.617 563.798 435.36 563.798 437.38V437.382ZM566.659 437.382C566.659 435.742 566.884 434.365 567.328 433.294C567.879 431.965 569.27 431.072 570.79 431.072H573.686V442.67H571.759C568.613 442.67 566.659 440.645 566.659 437.385V437.382Z" fill="black"/>
<path d="M227.706 432.197C226.702 429.776 224.306 428.211 221.602 428.211H218.706V423.829H191.593V445.391C191.593 448.456 194.079 450.941 197.144 450.941H213.155C216.172 450.941 218.622 448.531 218.698 445.531H220.633C225.394 445.531 228.594 442.257 228.594 437.385C228.594 435.367 228.295 433.622 227.706 432.2V432.197ZM220.636 442.667H218.708V431.07H221.604C223.124 431.07 224.513 431.962 225.066 433.292C225.51 434.365 225.735 435.74 225.735 437.38C225.735 440.64 223.781 442.665 220.636 442.665V442.667Z" fill="#006766"/>
<path d="M181.847 450.83H142.46L133.98 392.996H190.33L181.847 450.83Z" fill="black"/>
<path d="M198.452 406.723H125.858L128.41 390.982H195.9L198.452 406.723Z" fill="black"/>
<path d="M137.142 390.982C137.142 390.982 132.111 366.546 107.385 356.626C107.385 356.626 132.109 351.738 148.64 376.607C148.64 376.607 137.14 334.345 123.339 313.787C123.339 313.787 145.188 326.567 156.401 376.505C156.401 376.505 154.675 341.793 163.158 320.817C163.158 320.817 174.513 342.192 175.378 376.505C175.378 376.505 184.435 336.931 217.352 328.595C217.352 328.595 195.178 359.406 186.591 390.982H137.14H137.142Z" fill="#006766"/>
<path d="M468.403 60.6452C473.108 41.239 501.693 6.30833 546.847 16.2275C607.76 29.6081 600.253 104.381 584.833 97.3018C569.484 90.2554 608.475 48.8148 651.769 80.4834C698.345 114.552 670.314 186.14 621.15 187.721" stroke="black" stroke-width="2.32" stroke-miterlimit="10" stroke-linecap="round"/>
<path d="M205.83 304.834C205.83 306.622 204.38 308.073 202.592 308.073C200.804 308.073 199.354 306.622 199.354 304.834C199.354 303.047 200.804 301.596 202.592 301.596C204.38 301.596 205.83 303.047 205.83 304.834Z" fill="#006766"/>
<path d="M192.471 304.834C192.471 306.622 191.021 308.073 189.233 308.073C187.445 308.073 185.995 306.622 185.995 304.834C185.995 303.047 187.445 301.596 189.233 301.596C191.021 301.596 192.471 303.047 192.471 304.834Z" fill="#006766"/>
<path d="M179.114 304.834C179.114 306.622 177.664 308.073 175.876 308.073C174.088 308.073 172.638 306.622 172.638 304.834C172.638 303.047 174.088 301.596 175.876 301.596C177.664 301.596 179.114 303.047 179.114 304.834Z" fill="#006766"/>
<path d="M165.755 304.834C165.755 306.622 164.304 308.073 162.517 308.073C160.729 308.073 159.278 306.622 159.278 304.834C159.278 303.047 160.729 301.596 162.517 301.596C164.304 301.596 165.755 303.047 165.755 304.834Z" fill="#006766"/>
<path d="M651.631 402.919C652.496 399.252 650.225 395.577 646.557 394.711C642.89 393.846 639.215 396.117 638.349 399.785C637.483 403.452 639.755 407.127 643.423 407.993C647.09 408.858 650.765 406.587 651.631 402.919Z" fill="black"/>
<path d="M617.458 405.22C619.496 405.22 621.148 403.568 621.148 401.531C621.148 399.493 619.496 397.841 617.458 397.841C615.42 397.841 613.769 399.493 613.769 401.531C613.769 403.568 615.42 405.22 617.458 405.22Z" fill="url(#paint9_linear_74_641)"/>
<path d="M436.354 183.094C437.25 183.094 437.976 182.368 437.976 181.472C437.976 180.577 437.25 179.851 436.354 179.851C435.459 179.851 434.733 180.577 434.733 181.472C434.733 182.368 435.459 183.094 436.354 183.094Z" fill="url(#paint10_linear_74_641)"/>
<path d="M301.127 8.73865C301.72 5.09821 299.249 1.66642 295.609 1.07354C291.968 0.480655 288.536 2.95119 287.944 6.59163C287.351 10.2321 289.821 13.6639 293.462 14.2567C297.102 14.8496 300.534 12.3791 301.127 8.73865Z" fill="#006766"/>
<path d="M151.301 43.5158C151.301 44.945 150.143 46.1036 148.714 46.1036C147.284 46.1036 146.126 44.945 146.126 43.5158C146.126 42.0866 147.284 40.928 148.714 40.928C150.143 40.928 151.301 42.0866 151.301 43.5158Z" fill="black"/>
<path d="M480.796 10.6673C482.453 10.6673 483.797 9.32373 483.797 7.66637C483.797 6.00902 482.453 4.66547 480.796 4.66547C479.138 4.66547 477.795 6.00902 477.795 7.66637C477.795 9.32373 479.138 10.6673 480.796 10.6673Z" fill="black"/>
<path d="M612.598 48.1996C616.615 46.5358 618.523 41.9305 616.859 37.9136C615.195 33.8966 610.59 31.989 606.573 33.6529C602.556 35.3168 600.648 39.922 602.312 43.939C603.976 47.956 608.581 49.8635 612.598 48.1996Z" fill="black"/>
<path d="M643.382 42.7295C644.381 38.4979 641.76 34.2578 637.528 33.259C633.296 32.2603 629.056 34.881 628.058 39.1127C627.059 43.3444 629.68 47.5845 633.911 48.5833C638.143 49.582 642.383 46.9612 643.382 42.7295Z" fill="black"/>
<path d="M111.38 423.843C115.728 423.843 119.253 420.318 119.253 415.97C119.253 411.622 115.728 408.098 111.38 408.098C107.032 408.098 103.508 411.622 103.508 415.97C103.508 420.318 107.032 423.843 111.38 423.843Z" fill="black"/>
<path d="M660.746 450.939H92.6508" stroke="black" stroke-width="4.64" stroke-miterlimit="10" stroke-linecap="round"/>
<path d="M587.561 457H210.095" stroke="black" stroke-width="4.64" stroke-miterlimit="10" stroke-linecap="round"/>
<defs>
<linearGradient id="paint0_linear_74_641" x1="406.899" y1="111.485" x2="348.248" y2="227.06" gradientUnits="userSpaceOnUse">
<stop stop-color="#FFD2B5"/>
<stop offset="1" stop-color="#FFB792"/>
</linearGradient>
<linearGradient id="paint1_linear_74_641" x1="87.7673" y1="263.069" x2="167.548" y2="267.815" gradientUnits="userSpaceOnUse">
<stop stop-color="#FFD2B5"/>
<stop offset="1" stop-color="#FFB792"/>
</linearGradient>
<linearGradient id="paint2_linear_74_641" x1="244.714" y1="145.967" x2="244.714" y2="238.76" gradientUnits="userSpaceOnUse">
<stop stop-color="#FFD2B5"/>
<stop offset="1" stop-color="#FFB792"/>
</linearGradient>
<linearGradient id="paint3_linear_74_641" x1="219.121" y1="174.618" x2="230.156" y2="174.618" gradientUnits="userSpaceOnUse">
<stop stop-color="#FFD2B5"/>
<stop offset="1" stop-color="#FFB792"/>
</linearGradient>
<linearGradient id="paint4_linear_74_641" x1="253.798" y1="189.672" x2="253.798" y2="202.277" gradientUnits="userSpaceOnUse">
<stop stop-color="#FFD2B5"/>
<stop offset="1" stop-color="#FFB792"/>
</linearGradient>
<linearGradient id="paint5_linear_74_641" x1="88.7003" y1="247.383" x2="168.481" y2="252.126" gradientUnits="userSpaceOnUse">
<stop stop-color="#FFD2B5"/>
<stop offset="1" stop-color="#FFB792"/>
</linearGradient>
<linearGradient id="paint6_linear_74_641" x1="449.761" y1="247.49" x2="469.471" y2="338.602" gradientUnits="userSpaceOnUse">
<stop stop-color="#FFD2B5"/>
<stop offset="1" stop-color="#FFB792"/>
</linearGradient>
<linearGradient id="paint7_linear_74_641" x1="410.422" y1="435.291" x2="488.944" y2="435.291" gradientUnits="userSpaceOnUse">
<stop stop-color="#FFD2B5"/>
<stop offset="1" stop-color="#FFB792"/>
</linearGradient>
<linearGradient id="paint8_linear_74_641" x1="460.136" y1="291.896" x2="452.442" y2="312.931" gradientUnits="userSpaceOnUse">
<stop stop-color="#FFD2B5"/>
<stop offset="1" stop-color="#FFB792"/>
</linearGradient>
<linearGradient id="paint9_linear_74_641" x1="612.952" y1="397.025" x2="624.091" y2="408.164" gradientUnits="userSpaceOnUse">
<stop stop-color="#5A95EF"/>
<stop offset="1" stop-color="#4874EF"/>
</linearGradient>
<linearGradient id="paint10_linear_74_641" x1="434.374" y1="179.494" x2="439.267" y2="184.385" gradientUnits="userSpaceOnUse">
<stop stop-color="#5A95EF"/>
<stop offset="1" stop-color="#4874EF"/>
</linearGradient>
</defs>
</svg>
